<?xml version="1.0" encoding="UTF-8" standalone="no"?>
<svg
   xmlns:dc="http://purl.org/dc/elements/1.1/"
   xmlns:cc="http://creativecommons.org/ns#"
   xmlns:rdf="http://www.w3.org/1999/02/22-rdf-syntax-ns#"
   xmlns:svg="http://www.w3.org/2000/svg"
   xmlns="http://www.w3.org/2000/svg"
   xmlns:sodipodi="http://sodipodi.sourceforge.net/DTD/sodipodi-0.dtd"
   xmlns:inkscape="http://www.inkscape.org/namespaces/inkscape"
   inkscape:export-ydpi="42.473106"
   inkscape:export-xdpi="42.473106"
   inkscape:export-filename="C:\Users\smich\Desktop\TeeditorLogos\Square44x44Logo.targetsize-24_altform-unplated.png"
   width="100"
   height="100"
   viewBox="0 0 26.458333 26.458333"
   version="1.1"
   id="svg2785"
   inkscape:version="1.0 (4035a4fb49, 2020-05-01)"
   sodipodi:docname="TeeditorLogo.svg">
  <defs
     id="defs2779" />
  <sodipodi:namedview
     id="base"
     pagecolor="#ffffff"
     bordercolor="#666666"
     borderopacity="1.0"
     inkscape:pageopacity="0.0"
     inkscape:pageshadow="2"
     inkscape:zoom="1.4"
     inkscape:cx="-7.8052995"
     inkscape:cy="138.51911"
     inkscape:document-units="mm"
     inkscape:current-layer="layer1"
     inkscape:document-rotation="0"
     showgrid="false"
     units="px"
     fit-margin-top="0"
     fit-margin-left="0"
     fit-margin-right="0"
     fit-margin-bottom="0"
     inkscape:window-width="1366"
     inkscape:window-height="715"
     inkscape:window-x="-8"
     inkscape:window-y="-8"
     inkscape:window-maximized="1" />
  <metadata
     id="metadata2782">
    <rdf:RDF>
      <cc:Work
         rdf:about="">
        <dc:format>image/svg+xml</dc:format>
        <dc:type
           rdf:resource="http://purl.org/dc/dcmitype/StillImage" />
        <dc:title />
      </cc:Work>
    </rdf:RDF>
  </metadata>
  <g
     inkscape:label="Слой 1"
     inkscape:groupmode="layer"
     id="layer1"
     transform="translate(-1.1050407,-0.12823966)">
    <g
       id="g3379"
       transform="translate(0.29345552,0.07260548)">
      <path
         d="m 26.284028,13.211007 c 0,3.42543 -1.051428,6.3509 -3.154336,8.77652 -2.14892,2.50762 -6.988043,3.7614 -10.165372,3.7614 -3.1927256,0 -5.8635623,-1.24561 -8.0124813,-3.73677 -2.102909,-2.40927 -3.154363,-5.32659 -3.154363,-8.75196 0,-3.4253801 1.051454,-6.3426703 3.154363,-8.7519703 2.164265,-2.45835 4.8351007,-3.68755201 8.0124813,-3.68755201 3.161983,0 7.993407,1.22920201 10.142379,3.68755201 2.118201,2.39289 3.177329,5.2938402 3.177329,8.7027803 z m -4.858147,0.049 c 0,-1.99946 -0.575601,-3.7039501 -1.726777,-5.1134703 -1.197319,-1.4914 -4.89286,-2.23716 -6.734784,-2.23716 -1.841949,0 -3.3692296,0.73753 -4.5818413,2.21258 -1.151228,1.4258702 -1.726829,3.1385903 -1.726829,5.1380503 0,1.96673 0.583247,3.67128 1.749821,5.11355 1.2279317,1.52416 2.7475913,2.28632 4.5588493,2.28626 1.826604,6e-5 5.522119,-0.7621 6.734784,-2.28626 1.151176,-1.44227 1.726777,-3.14682 1.726777,-5.11355 z"
         style="font-style:normal;font-variant:normal;font-weight:normal;font-stretch:normal;font-size:40px;line-height:125%;font-family:'Berlin Sans FB';-inkscape-font-specification:'Berlin Sans FB';letter-spacing:0px;word-spacing:0px;fill:#4d4d4d;fill-opacity:1;stroke:#000000;stroke-width:1.38487;stroke-miterlimit:4;stroke-dasharray:none;stroke-opacity:1"
         id="path3221-48"
         inkscape:connector-curvature="0"
         sodipodi:nodetypes="ccscsccccccccscscc"
         inkscape:export-filename="C:\Documents and Settings\Admin\Рабочий стол\Teerror logo.png"
         inkscape:export-xdpi="171.74385"
         inkscape:export-ydpi="171.74385" />
      <ellipse
         ry="9.7193985"
         rx="9.7900772"
         cy="13.249044"
         cx="14.101909"
         style="fill:#a9b24c;fill-opacity:1;stroke:#000000;stroke-width:1.52408;stroke-miterlimit:4;stroke-dasharray:none;stroke-opacity:1"
         id="path4007-5"
         inkscape:export-filename="C:\Documents and Settings\Admin\Рабочий стол\Teerror logo.png"
         inkscape:export-xdpi="171.74385"
         inkscape:export-ydpi="171.74385" />
      <ellipse
         ry="9.7193985"
         rx="9.7900772"
         cy="13.249044"
         cx="14.101909"
         id="path4017-5"
         style="fill:#fde337;fill-opacity:1;stroke:#000000;stroke-width:1.52408;stroke-miterlimit:4;stroke-dasharray:none;stroke-opacity:1"
         inkscape:export-filename="C:\Documents and Settings\Admin\Рабочий стол\Teerror logo.png"
         inkscape:export-xdpi="171.74385"
         inkscape:export-ydpi="171.74385" />
      <path
         style="fill:#000000;fill-opacity:1;stroke:#000000;stroke-width:0;stroke-linecap:round;stroke-linejoin:round;stroke-miterlimit:4;stroke-dasharray:none;stroke-dashoffset:0;stroke-opacity:1"
         d="m 13.464277,12.069167 c -0.04376,1.69109 -0.836798,3.05375 -1.770935,3.04361 -0.934112,-0.01 -1.655763,-1.38927 -1.611789,-3.08036 0.04376,-1.69111 1.472353,-3.9139503 1.770962,-3.0436301 0.238204,0.6944 0.239368,2.7819101 1.611762,3.0803801 z"
         id="path4031-88"
         inkscape:connector-curvature="0"
         sodipodi:nodetypes="cscsc"
         inkscape:export-filename="C:\Documents and Settings\Admin\Рабочий стол\eyes.png"
         inkscape:export-xdpi="171.74385"
         inkscape:export-ydpi="171.74385" />
      <path
         sodipodi:nodetypes="cscsc"
         inkscape:connector-curvature="0"
         id="path4036-7"
         d="m 14.548116,12.069167 c 0.04376,1.69109 0.836877,3.05375 1.770936,3.04361 0.934111,-0.01 1.655789,-1.38927 1.611815,-3.08036 -0.04376,-1.69111 -1.472353,-3.9139503 -1.770988,-3.0436301 -0.238178,0.6944 -0.239342,2.7819101 -1.611763,3.0803801 z"
         style="fill:#000000;fill-opacity:1;stroke:#000000;stroke-width:0;stroke-linecap:round;stroke-linejoin:round;stroke-miterlimit:4;stroke-dasharray:none;stroke-dashoffset:0;stroke-opacity:1"
         inkscape:export-filename="C:\Documents and Settings\Admin\Рабочий стол\eyes.png"
         inkscape:export-xdpi="171.74385"
         inkscape:export-ydpi="171.74385" />
      <path
         style="fill:#000000;fill-opacity:0.343434;stroke:#000000;stroke-width:0;stroke-miterlimit:4;stroke-opacity:1"
         d="m 20.081162,20.945707 c -2.195539,1.53453 -3.737107,1.822 -5.979265,2.02276 -5.9485473,0.53256 -9.7901123,-4.35155 -9.7901123,-9.71939 0,-5.3678603 6.1434923,-13.71372131 16.4250943,-7.3228403 -4.171341,-2.7214 -13.0010683,-2.33405 -13.9171083,6.6056603 -0.623174,6.08124 3.9558103,11.85643 13.2613913,8.41381 z"
         id="path4122-8"
         inkscape:connector-curvature="0"
         sodipodi:nodetypes="csscsc"
         inkscape:export-filename="C:\Documents and Settings\Admin\Рабочий стол\Teerror logo.png"
         inkscape:export-xdpi="171.74385"
         inkscape:export-ydpi="171.74385" />
      <path
         sodipodi:nodetypes="ccc"
         inkscape:connector-curvature="0"
         id="path4128-0"
         d="m 19.379699,7.9960467 c -1.111567,0.72903 -1.326674,-0.19466 -1.69754,-1.71752 1.505479,0.55689 2.638319,0.97293 1.69754,1.71752 z"
         style="fill:#000000;fill-opacity:0.414141;stroke:#000000;stroke-width:0;stroke-linecap:round;stroke-linejoin:round;stroke-miterlimit:4;stroke-dashoffset:0;stroke-opacity:1"
         inkscape:export-filename="C:\Documents and Settings\Admin\Рабочий стол\Teerror logo.png"
         inkscape:export-xdpi="171.74385"
         inkscape:export-ydpi="171.74385" />
      <path
         style="fill:#f9f9f9;fill-opacity:1;stroke:#000000;stroke-width:0;stroke-linecap:round;stroke-linejoin:round;stroke-miterlimit:4;stroke-dashoffset:0;stroke-opacity:1"
         d="m 19.379699,7.8077667 c -1.111567,0.72898 -1.326674,-0.19471 -1.69754,-1.71757 1.505479,0.55689 2.638319,0.97298 1.69754,1.71757 z"
         id="rect4125-8"
         inkscape:connector-curvature="0"
         sodipodi:nodetypes="ccc"
         inkscape:export-filename="C:\Documents and Settings\Admin\Рабочий стол\Teerror logo.png"
         inkscape:export-xdpi="171.74385"
         inkscape:export-ydpi="171.74385" />
      <path
         sodipodi:nodetypes="ccsccc"
         inkscape:connector-curvature="0"
         id="path4130-8"
         style="font-style:normal;font-variant:normal;font-weight:normal;font-stretch:normal;font-size:40px;line-height:125%;font-family:'Berlin Sans FB';-inkscape-font-specification:'Berlin Sans FB';letter-spacing:0px;word-spacing:0px;fill:#000000;fill-opacity:0.384314;stroke:#000000;stroke-width:0;stroke-miterlimit:4;stroke-dasharray:none;stroke-opacity:1"
         d="m 26.284028,13.211007 c 0,3.42543 -1.051428,6.3509 -3.154336,8.77652 -2.14892,2.50762 -6.988043,3.7614 -10.165372,3.7614 -3.1927256,0 -5.8635623,-1.24561 -8.0124813,-3.73677 11.5550143,6.93928 25.5903123,-1.11006 18.1548603,-17.5039303 2.118201,2.39289 3.177329,5.2938402 3.177329,8.7027803 z"
         inkscape:export-filename="C:\Documents and Settings\Admin\Рабочий стол\Teerror logo.png"
         inkscape:export-xdpi="171.74385"
         inkscape:export-ydpi="171.74385" />
    </g>
  </g>
</svg>
